<mxfile host="app.diagrams.net" modified="2023-11-26T12:20:14.419Z" agent="Mozilla/5.0 (Windows NT 10.0; Win64; x64) AppleWebKit/537.36 (KHTML, like Gecko) Chrome/119.0.0.0 Safari/537.36" etag="2hBMITZ3borRMlMtu0zv" version="22.1.4" type="github" pages="5">
  <diagram name="MAIN MENU" id="f6qbeZWMwSDhqAoHqIBX">
    <mxGraphModel dx="1434" dy="780" grid="1" gridSize="10" guides="1" tooltips="1" connect="1" arrows="1" fold="1" page="1" pageScale="1" pageWidth="850" pageHeight="1100" math="0" shadow="0">
      <root>
        <mxCell id="0" />
        <mxCell id="1" parent="0" />
        <mxCell id="A0sOsEILW6__i0M57WjE-8" style="edgeStyle=orthogonalEdgeStyle;rounded=0;orthogonalLoop=1;jettySize=auto;html=1;shape=link;" edge="1" parent="1" source="A0sOsEILW6__i0M57WjE-7">
          <mxGeometry relative="1" as="geometry">
            <mxPoint x="425" y="650" as="targetPoint" />
          </mxGeometry>
        </mxCell>
        <mxCell id="A0sOsEILW6__i0M57WjE-13" style="edgeStyle=orthogonalEdgeStyle;rounded=0;orthogonalLoop=1;jettySize=auto;html=1;entryX=1;entryY=0.5;entryDx=0;entryDy=0;shape=link;" edge="1" parent="1" source="A0sOsEILW6__i0M57WjE-7" target="IMS0mvS3RAIJHj3OlGql-1">
          <mxGeometry relative="1" as="geometry">
            <mxPoint x="240" y="510" as="targetPoint" />
          </mxGeometry>
        </mxCell>
        <mxCell id="A0sOsEILW6__i0M57WjE-15" style="edgeStyle=orthogonalEdgeStyle;rounded=0;orthogonalLoop=1;jettySize=auto;html=1;entryX=0;entryY=0.5;entryDx=0;entryDy=0;shape=link;" edge="1" parent="1" source="A0sOsEILW6__i0M57WjE-7" target="A0sOsEILW6__i0M57WjE-14">
          <mxGeometry relative="1" as="geometry" />
        </mxCell>
        <mxCell id="JNywMPjdHzQD_Y4PxTfl-3" style="edgeStyle=orthogonalEdgeStyle;rounded=0;orthogonalLoop=1;jettySize=auto;html=1;entryX=0.5;entryY=1;entryDx=0;entryDy=0;" edge="1" parent="1" source="A0sOsEILW6__i0M57WjE-7" target="3nCfzb72wTaJytYhFQna-3">
          <mxGeometry relative="1" as="geometry">
            <mxPoint x="425" y="370" as="targetPoint" />
          </mxGeometry>
        </mxCell>
        <mxCell id="JNywMPjdHzQD_Y4PxTfl-5" style="rounded=0;orthogonalLoop=1;jettySize=auto;html=1;exitX=1;exitY=1;exitDx=0;exitDy=0;entryX=0;entryY=0;entryDx=0;entryDy=0;" edge="1" parent="1" source="3nCfzb72wTaJytYhFQna-2" target="A0sOsEILW6__i0M57WjE-7">
          <mxGeometry relative="1" as="geometry">
            <mxPoint x="200" y="320" as="sourcePoint" />
          </mxGeometry>
        </mxCell>
        <mxCell id="A0sOsEILW6__i0M57WjE-7" value="MAIN MENU" style="whiteSpace=wrap;html=1;fillColor=#dae8fc;strokeColor=#6c8ebf;" vertex="1" parent="1">
          <mxGeometry x="365" y="480" width="120" height="60" as="geometry" />
        </mxCell>
        <mxCell id="A0sOsEILW6__i0M57WjE-10" value="GAME" style="whiteSpace=wrap;html=1;" vertex="1" parent="1">
          <mxGeometry x="365" y="650" width="120" height="60" as="geometry" />
        </mxCell>
        <mxCell id="A0sOsEILW6__i0M57WjE-14" value="CONTROLS" style="whiteSpace=wrap;html=1;" vertex="1" parent="1">
          <mxGeometry x="600" y="480" width="120" height="60" as="geometry" />
        </mxCell>
        <mxCell id="3nCfzb72wTaJytYhFQna-2" value="RUN PROGRAM" style="ellipse;whiteSpace=wrap;html=1;fillColor=#d5e8d4;strokeColor=#82b366;" vertex="1" parent="1">
          <mxGeometry x="100" y="250" width="120" height="80" as="geometry" />
        </mxCell>
        <mxCell id="3nCfzb72wTaJytYhFQna-3" value="QUIT" style="ellipse;whiteSpace=wrap;html=1;fillColor=#f8cecc;strokeColor=#b85450;" vertex="1" parent="1">
          <mxGeometry x="365" y="250" width="120" height="80" as="geometry" />
        </mxCell>
        <mxCell id="IMS0mvS3RAIJHj3OlGql-1" value="HIGHSCORES" style="ellipse;whiteSpace=wrap;html=1;" vertex="1" parent="1">
          <mxGeometry x="100" y="470" width="120" height="80" as="geometry" />
        </mxCell>
      </root>
    </mxGraphModel>
  </diagram>
  <diagram id="wsTIQX0R__2c1MG0-mjk" name="CONTROLS">
    <mxGraphModel dx="1434" dy="780" grid="1" gridSize="10" guides="1" tooltips="1" connect="1" arrows="1" fold="1" page="1" pageScale="1" pageWidth="850" pageHeight="1100" math="0" shadow="0">
      <root>
        <mxCell id="0" />
        <mxCell id="1" parent="0" />
        <mxCell id="JovX2mf4m0CrY_RjvSDW-2" style="edgeStyle=orthogonalEdgeStyle;rounded=0;orthogonalLoop=1;jettySize=auto;html=1;entryX=0.5;entryY=1;entryDx=0;entryDy=0;startArrow=classic;startFill=1;" edge="1" parent="1" source="nOP7orXFP5lJyvkfBWBb-1" target="JovX2mf4m0CrY_RjvSDW-1">
          <mxGeometry relative="1" as="geometry" />
        </mxCell>
        <mxCell id="JovX2mf4m0CrY_RjvSDW-6" value="" style="edgeStyle=orthogonalEdgeStyle;rounded=0;orthogonalLoop=1;jettySize=auto;html=1;startArrow=classic;startFill=1;" edge="1" parent="1" source="nOP7orXFP5lJyvkfBWBb-1" target="JovX2mf4m0CrY_RjvSDW-5">
          <mxGeometry relative="1" as="geometry" />
        </mxCell>
        <mxCell id="nOP7orXFP5lJyvkfBWBb-1" value="CONTROLS" style="whiteSpace=wrap;html=1;fillColor=#dae8fc;strokeColor=#6c8ebf;" vertex="1" parent="1">
          <mxGeometry x="365" y="520" width="120" height="60" as="geometry" />
        </mxCell>
        <mxCell id="JovX2mf4m0CrY_RjvSDW-8" style="rounded=0;orthogonalLoop=1;jettySize=auto;html=1;exitX=0;exitY=0;exitDx=0;exitDy=0;startArrow=classic;startFill=1;entryX=1;entryY=1;entryDx=0;entryDy=0;" edge="1" parent="1" source="JovX2mf4m0CrY_RjvSDW-1" target="JovX2mf4m0CrY_RjvSDW-10">
          <mxGeometry relative="1" as="geometry">
            <mxPoint x="270" y="320" as="targetPoint" />
          </mxGeometry>
        </mxCell>
        <mxCell id="JovX2mf4m0CrY_RjvSDW-17" style="rounded=0;orthogonalLoop=1;jettySize=auto;html=1;exitX=1;exitY=0;exitDx=0;exitDy=0;startArrow=classic;startFill=1;" edge="1" parent="1" source="JovX2mf4m0CrY_RjvSDW-1" target="JovX2mf4m0CrY_RjvSDW-16">
          <mxGeometry relative="1" as="geometry" />
        </mxCell>
        <mxCell id="JovX2mf4m0CrY_RjvSDW-1" value="CAMERA CONTROLS" style="whiteSpace=wrap;html=1;" vertex="1" parent="1">
          <mxGeometry x="365" y="380" width="120" height="60" as="geometry" />
        </mxCell>
        <mxCell id="JovX2mf4m0CrY_RjvSDW-19" style="rounded=0;orthogonalLoop=1;jettySize=auto;html=1;exitX=0;exitY=1;exitDx=0;exitDy=0;entryX=1;entryY=0;entryDx=0;entryDy=0;startArrow=classic;startFill=1;" edge="1" parent="1" source="JovX2mf4m0CrY_RjvSDW-5" target="JovX2mf4m0CrY_RjvSDW-18">
          <mxGeometry relative="1" as="geometry" />
        </mxCell>
        <mxCell id="JovX2mf4m0CrY_RjvSDW-21" value="" style="edgeStyle=orthogonalEdgeStyle;rounded=0;orthogonalLoop=1;jettySize=auto;html=1;startArrow=classic;startFill=1;" edge="1" parent="1" source="JovX2mf4m0CrY_RjvSDW-5" target="JovX2mf4m0CrY_RjvSDW-20">
          <mxGeometry relative="1" as="geometry" />
        </mxCell>
        <mxCell id="JovX2mf4m0CrY_RjvSDW-23" style="rounded=0;orthogonalLoop=1;jettySize=auto;html=1;exitX=1;exitY=1;exitDx=0;exitDy=0;startArrow=classic;startFill=1;" edge="1" parent="1" source="JovX2mf4m0CrY_RjvSDW-5" target="JovX2mf4m0CrY_RjvSDW-22">
          <mxGeometry relative="1" as="geometry" />
        </mxCell>
        <mxCell id="JovX2mf4m0CrY_RjvSDW-5" value="CHARACTER CONTROLS" style="whiteSpace=wrap;html=1;" vertex="1" parent="1">
          <mxGeometry x="365" y="660" width="120" height="60" as="geometry" />
        </mxCell>
        <mxCell id="JovX2mf4m0CrY_RjvSDW-10" value="LOCK ON TO CHARACTER" style="ellipse;whiteSpace=wrap;html=1;" vertex="1" parent="1">
          <mxGeometry x="220" y="240" width="80" height="80" as="geometry" />
        </mxCell>
        <mxCell id="JovX2mf4m0CrY_RjvSDW-13" style="edgeStyle=orthogonalEdgeStyle;rounded=0;orthogonalLoop=1;jettySize=auto;html=1;entryX=0.5;entryY=0;entryDx=0;entryDy=0;startArrow=classic;startFill=1;" edge="1" parent="1" source="JovX2mf4m0CrY_RjvSDW-11" target="JovX2mf4m0CrY_RjvSDW-1">
          <mxGeometry relative="1" as="geometry" />
        </mxCell>
        <mxCell id="JovX2mf4m0CrY_RjvSDW-11" value="FREE LOOK LEFT, RIGHT, UP, DOWN" style="ellipse;whiteSpace=wrap;html=1;" vertex="1" parent="1">
          <mxGeometry x="385" y="240" width="80" height="80" as="geometry" />
        </mxCell>
        <mxCell id="JovX2mf4m0CrY_RjvSDW-16" value="ZOOM IN/OUT" style="ellipse;whiteSpace=wrap;html=1;" vertex="1" parent="1">
          <mxGeometry x="540" y="240" width="80" height="80" as="geometry" />
        </mxCell>
        <mxCell id="JovX2mf4m0CrY_RjvSDW-18" value="MOVE LEFT/RIGHT JUMP/DUCK" style="ellipse;whiteSpace=wrap;html=1;" vertex="1" parent="1">
          <mxGeometry x="220" y="800" width="80" height="80" as="geometry" />
        </mxCell>
        <mxCell id="JovX2mf4m0CrY_RjvSDW-20" value="ABILITIES" style="ellipse;whiteSpace=wrap;html=1;" vertex="1" parent="1">
          <mxGeometry x="385" y="800" width="80" height="80" as="geometry" />
        </mxCell>
        <mxCell id="JovX2mf4m0CrY_RjvSDW-22" value="ATTACKING" style="ellipse;whiteSpace=wrap;html=1;" vertex="1" parent="1">
          <mxGeometry x="540" y="800" width="80" height="80" as="geometry" />
        </mxCell>
        <mxCell id="C7izy2zjKDOAadgw1DY5-1" value="PAUSE MENU" style="whiteSpace=wrap;html=1;" vertex="1" parent="1">
          <mxGeometry x="125" y="400" width="120" height="60" as="geometry" />
        </mxCell>
        <mxCell id="EzD_RUvCBGB9TVmB6lGQ-1" value="MAIN MENU" style="whiteSpace=wrap;html=1;" vertex="1" parent="1">
          <mxGeometry x="125" y="640" width="120" height="60" as="geometry" />
        </mxCell>
        <mxCell id="EzD_RUvCBGB9TVmB6lGQ-2" value="" style="strokeWidth=2;html=1;shape=mxgraph.flowchart.annotation_2;align=left;labelPosition=right;pointerEvents=1;rotation=-180;" vertex="1" parent="1">
          <mxGeometry x="245" y="425" width="120" height="250" as="geometry" />
        </mxCell>
        <mxCell id="EzD_RUvCBGB9TVmB6lGQ-3" style="edgeStyle=orthogonalEdgeStyle;rounded=0;orthogonalLoop=1;jettySize=auto;html=1;exitX=0;exitY=0.5;exitDx=0;exitDy=0;entryX=0;entryY=0.5;entryDx=0;entryDy=0;entryPerimeter=0;endArrow=none;endFill=0;" edge="1" parent="1" source="nOP7orXFP5lJyvkfBWBb-1" target="EzD_RUvCBGB9TVmB6lGQ-2">
          <mxGeometry relative="1" as="geometry" />
        </mxCell>
      </root>
    </mxGraphModel>
  </diagram>
  <diagram id="AFJw5L8N4FYlKycEIOmF" name="GAME">
    <mxGraphModel dx="1434" dy="780" grid="1" gridSize="10" guides="1" tooltips="1" connect="1" arrows="1" fold="1" page="1" pageScale="1" pageWidth="850" pageHeight="1100" math="0" shadow="0">
      <root>
        <mxCell id="0" />
        <mxCell id="1" parent="0" />
        <mxCell id="VCiBEJKBP1wD6iSnRR23-2" style="rounded=0;orthogonalLoop=1;jettySize=auto;html=1;exitX=0;exitY=0;exitDx=0;exitDy=0;entryX=1;entryY=1;entryDx=0;entryDy=0;startArrow=classic;startFill=1;" edge="1" parent="1" source="TVBOGNOdT7VSfqVPFUww-1" target="VCiBEJKBP1wD6iSnRR23-1">
          <mxGeometry relative="1" as="geometry" />
        </mxCell>
        <mxCell id="-nl5IvztgWxU2XyF3XSp-2" value="" style="edgeStyle=orthogonalEdgeStyle;rounded=0;orthogonalLoop=1;jettySize=auto;html=1;" edge="1" parent="1" source="TVBOGNOdT7VSfqVPFUww-1" target="-nl5IvztgWxU2XyF3XSp-1">
          <mxGeometry relative="1" as="geometry" />
        </mxCell>
        <mxCell id="TVBOGNOdT7VSfqVPFUww-1" value="GAME" style="whiteSpace=wrap;html=1;fillColor=#dae8fc;strokeColor=#6c8ebf;" vertex="1" parent="1">
          <mxGeometry x="360" y="520" width="120" height="60" as="geometry" />
        </mxCell>
        <mxCell id="_DnxZRCTlROANOcN744E-3" style="rounded=0;orthogonalLoop=1;jettySize=auto;html=1;exitX=1;exitY=0;exitDx=0;exitDy=0;entryX=0;entryY=1;entryDx=0;entryDy=0;" edge="1" parent="1" source="VCiBEJKBP1wD6iSnRR23-1" target="_DnxZRCTlROANOcN744E-1">
          <mxGeometry relative="1" as="geometry" />
        </mxCell>
        <mxCell id="VCiBEJKBP1wD6iSnRR23-1" value="PAUSE MENU" style="whiteSpace=wrap;html=1;" vertex="1" parent="1">
          <mxGeometry x="160" y="380" width="120" height="60" as="geometry" />
        </mxCell>
        <mxCell id="cxzSiZV_l0XhxVGDqH5--3" style="rounded=0;orthogonalLoop=1;jettySize=auto;html=1;exitX=0.5;exitY=0;exitDx=0;exitDy=0;entryX=0.5;entryY=1;entryDx=0;entryDy=0;startArrow=classic;startFill=1;endArrow=none;endFill=0;edgeStyle=orthogonalEdgeStyle;" edge="1" parent="1" source="cxzSiZV_l0XhxVGDqH5--1" target="TVBOGNOdT7VSfqVPFUww-1">
          <mxGeometry relative="1" as="geometry">
            <mxPoint x="180" y="630" as="sourcePoint" />
          </mxGeometry>
        </mxCell>
        <mxCell id="cxzSiZV_l0XhxVGDqH5--1" value="LEVEL" style="rounded=0;whiteSpace=wrap;html=1;" vertex="1" parent="1">
          <mxGeometry x="240" y="660" width="120" height="60" as="geometry" />
        </mxCell>
        <mxCell id="-nl5IvztgWxU2XyF3XSp-1" value="CHARACTER" style="whiteSpace=wrap;html=1;" vertex="1" parent="1">
          <mxGeometry x="480" y="660" width="120" height="60" as="geometry" />
        </mxCell>
        <mxCell id="_DnxZRCTlROANOcN744E-2" style="edgeStyle=orthogonalEdgeStyle;rounded=0;orthogonalLoop=1;jettySize=auto;html=1;entryX=0.5;entryY=0;entryDx=0;entryDy=0;" edge="1" parent="1" source="_DnxZRCTlROANOcN744E-1" target="TVBOGNOdT7VSfqVPFUww-1">
          <mxGeometry relative="1" as="geometry" />
        </mxCell>
        <mxCell id="_DnxZRCTlROANOcN744E-1" value="MAIN MENU" style="whiteSpace=wrap;html=1;" vertex="1" parent="1">
          <mxGeometry x="360" y="260" width="120" height="60" as="geometry" />
        </mxCell>
      </root>
    </mxGraphModel>
  </diagram>
  <diagram id="sTj0x3kTQRbL7YshAb3h" name="PAUSE MENU">
    <mxGraphModel dx="1434" dy="780" grid="1" gridSize="10" guides="1" tooltips="1" connect="1" arrows="1" fold="1" page="1" pageScale="1" pageWidth="850" pageHeight="1100" math="0" shadow="0">
      <root>
        <mxCell id="0" />
        <mxCell id="1" parent="0" />
        <mxCell id="Kn4Cy52cA3jYdLmHuO6p-2" value="" style="edgeStyle=orthogonalEdgeStyle;rounded=0;orthogonalLoop=1;jettySize=auto;html=1;startArrow=classic;startFill=1;" edge="1" parent="1" source="qxQLil6lMfuEJu_GpRrl-1" target="Kn4Cy52cA3jYdLmHuO6p-1">
          <mxGeometry relative="1" as="geometry" />
        </mxCell>
        <mxCell id="Byaa2cfL4_PmIDJNzEeE-2" value="" style="edgeStyle=orthogonalEdgeStyle;rounded=0;orthogonalLoop=1;jettySize=auto;html=1;" edge="1" parent="1" source="qxQLil6lMfuEJu_GpRrl-1" target="Byaa2cfL4_PmIDJNzEeE-1">
          <mxGeometry relative="1" as="geometry" />
        </mxCell>
        <mxCell id="Byaa2cfL4_PmIDJNzEeE-4" value="" style="edgeStyle=orthogonalEdgeStyle;rounded=0;orthogonalLoop=1;jettySize=auto;html=1;startArrow=classic;startFill=1;" edge="1" parent="1" source="qxQLil6lMfuEJu_GpRrl-1" target="Byaa2cfL4_PmIDJNzEeE-3">
          <mxGeometry relative="1" as="geometry" />
        </mxCell>
        <mxCell id="qxQLil6lMfuEJu_GpRrl-1" value="PAUSE MENU" style="whiteSpace=wrap;html=1;fillColor=#dae8fc;strokeColor=#6c8ebf;" vertex="1" parent="1">
          <mxGeometry x="365" y="520" width="120" height="60" as="geometry" />
        </mxCell>
        <mxCell id="Kn4Cy52cA3jYdLmHuO6p-1" value="CONTROLS" style="whiteSpace=wrap;html=1;" vertex="1" parent="1">
          <mxGeometry x="165" y="520" width="120" height="60" as="geometry" />
        </mxCell>
        <mxCell id="Byaa2cfL4_PmIDJNzEeE-1" value="MAIN MENU" style="whiteSpace=wrap;html=1;" vertex="1" parent="1">
          <mxGeometry x="565" y="520" width="120" height="60" as="geometry" />
        </mxCell>
        <mxCell id="Byaa2cfL4_PmIDJNzEeE-3" value="GAME" style="whiteSpace=wrap;html=1;" vertex="1" parent="1">
          <mxGeometry x="365" y="660" width="120" height="60" as="geometry" />
        </mxCell>
      </root>
    </mxGraphModel>
  </diagram>
  <diagram id="pRN78n8F8wu90nyks8tK" name="CHARACTER">
    <mxGraphModel dx="1434" dy="780" grid="1" gridSize="10" guides="1" tooltips="1" connect="1" arrows="1" fold="1" page="1" pageScale="1" pageWidth="850" pageHeight="1100" math="0" shadow="0">
      <root>
        <mxCell id="0" />
        <mxCell id="1" parent="0" />
        <mxCell id="CDvU7p-iJY4ADXNCXkYR-3" style="rounded=0;orthogonalLoop=1;jettySize=auto;html=1;exitX=0;exitY=0;exitDx=0;exitDy=0;entryX=1;entryY=1;entryDx=0;entryDy=0;" edge="1" parent="1" source="CDvU7p-iJY4ADXNCXkYR-1" target="CDvU7p-iJY4ADXNCXkYR-2">
          <mxGeometry relative="1" as="geometry" />
        </mxCell>
        <mxCell id="CDvU7p-iJY4ADXNCXkYR-5" value="" style="edgeStyle=orthogonalEdgeStyle;rounded=0;orthogonalLoop=1;jettySize=auto;html=1;" edge="1" parent="1" source="CDvU7p-iJY4ADXNCXkYR-1" target="CDvU7p-iJY4ADXNCXkYR-4">
          <mxGeometry relative="1" as="geometry" />
        </mxCell>
        <mxCell id="CDvU7p-iJY4ADXNCXkYR-8" style="rounded=0;orthogonalLoop=1;jettySize=auto;html=1;exitX=1;exitY=1;exitDx=0;exitDy=0;entryX=0;entryY=0;entryDx=0;entryDy=0;" edge="1" parent="1" source="CDvU7p-iJY4ADXNCXkYR-1" target="CDvU7p-iJY4ADXNCXkYR-7">
          <mxGeometry relative="1" as="geometry" />
        </mxCell>
        <mxCell id="CDvU7p-iJY4ADXNCXkYR-10" style="rounded=0;orthogonalLoop=1;jettySize=auto;html=1;exitX=0;exitY=1;exitDx=0;exitDy=0;entryX=1;entryY=0;entryDx=0;entryDy=0;" edge="1" parent="1" source="CDvU7p-iJY4ADXNCXkYR-1" target="CDvU7p-iJY4ADXNCXkYR-9">
          <mxGeometry relative="1" as="geometry" />
        </mxCell>
        <mxCell id="CDvU7p-iJY4ADXNCXkYR-1" value="CHARACTER" style="whiteSpace=wrap;html=1;fillColor=#dae8fc;strokeColor=#6c8ebf;" vertex="1" parent="1">
          <mxGeometry x="365" y="520" width="120" height="60" as="geometry" />
        </mxCell>
        <mxCell id="CDvU7p-iJY4ADXNCXkYR-2" value="CHAR-DESIGN" style="whiteSpace=wrap;html=1;" vertex="1" parent="1">
          <mxGeometry x="200" y="410" width="120" height="60" as="geometry" />
        </mxCell>
        <mxCell id="CDvU7p-iJY4ADXNCXkYR-4" value="WEAPONS" style="whiteSpace=wrap;html=1;" vertex="1" parent="1">
          <mxGeometry x="365" y="630" width="120" height="60" as="geometry" />
        </mxCell>
        <mxCell id="CDvU7p-iJY4ADXNCXkYR-14" style="rounded=0;orthogonalLoop=1;jettySize=auto;html=1;entryX=0.5;entryY=0;entryDx=0;entryDy=0;exitX=0.5;exitY=1;exitDx=0;exitDy=0;" edge="1" parent="1" source="CDvU7p-iJY4ADXNCXkYR-7" target="CDvU7p-iJY4ADXNCXkYR-13">
          <mxGeometry relative="1" as="geometry" />
        </mxCell>
        <mxCell id="CDvU7p-iJY4ADXNCXkYR-16" style="edgeStyle=orthogonalEdgeStyle;rounded=0;orthogonalLoop=1;jettySize=auto;html=1;exitX=0.5;exitY=1;exitDx=0;exitDy=0;entryX=0.5;entryY=0;entryDx=0;entryDy=0;" edge="1" parent="1" source="CDvU7p-iJY4ADXNCXkYR-7" target="CDvU7p-iJY4ADXNCXkYR-15">
          <mxGeometry relative="1" as="geometry" />
        </mxCell>
        <mxCell id="CDvU7p-iJY4ADXNCXkYR-19" style="rounded=0;orthogonalLoop=1;jettySize=auto;html=1;exitX=0.5;exitY=1;exitDx=0;exitDy=0;entryX=0.5;entryY=0;entryDx=0;entryDy=0;" edge="1" parent="1" source="CDvU7p-iJY4ADXNCXkYR-7" target="CDvU7p-iJY4ADXNCXkYR-20">
          <mxGeometry relative="1" as="geometry">
            <mxPoint x="720" y="750" as="targetPoint" />
          </mxGeometry>
        </mxCell>
        <mxCell id="CDvU7p-iJY4ADXNCXkYR-7" value="STATS" style="whiteSpace=wrap;html=1;" vertex="1" parent="1">
          <mxGeometry x="530" y="630" width="120" height="60" as="geometry" />
        </mxCell>
        <mxCell id="CDvU7p-iJY4ADXNCXkYR-9" value="ABILITIES" style="whiteSpace=wrap;html=1;" vertex="1" parent="1">
          <mxGeometry x="200" y="630" width="120" height="60" as="geometry" />
        </mxCell>
        <mxCell id="CDvU7p-iJY4ADXNCXkYR-13" value="STRENGTH" style="ellipse;whiteSpace=wrap;html=1;" vertex="1" parent="1">
          <mxGeometry x="425" y="750" width="80" height="80" as="geometry" />
        </mxCell>
        <mxCell id="CDvU7p-iJY4ADXNCXkYR-15" value="SPEED" style="ellipse;whiteSpace=wrap;html=1;" vertex="1" parent="1">
          <mxGeometry x="550" y="750" width="80" height="80" as="geometry" />
        </mxCell>
        <mxCell id="CDvU7p-iJY4ADXNCXkYR-24" value="" style="edgeStyle=orthogonalEdgeStyle;rounded=0;orthogonalLoop=1;jettySize=auto;html=1;" edge="1" parent="1" source="CDvU7p-iJY4ADXNCXkYR-20" target="CDvU7p-iJY4ADXNCXkYR-23">
          <mxGeometry relative="1" as="geometry" />
        </mxCell>
        <mxCell id="CDvU7p-iJY4ADXNCXkYR-26" style="edgeStyle=orthogonalEdgeStyle;rounded=0;orthogonalLoop=1;jettySize=auto;html=1;exitX=0.5;exitY=1;exitDx=0;exitDy=0;entryX=0.5;entryY=0;entryDx=0;entryDy=0;" edge="1" parent="1" source="CDvU7p-iJY4ADXNCXkYR-20" target="CDvU7p-iJY4ADXNCXkYR-25">
          <mxGeometry relative="1" as="geometry" />
        </mxCell>
        <mxCell id="CDvU7p-iJY4ADXNCXkYR-20" value="HEARTS" style="whiteSpace=wrap;html=1;" vertex="1" parent="1">
          <mxGeometry x="660" y="760" width="120" height="60" as="geometry" />
        </mxCell>
        <mxCell id="CDvU7p-iJY4ADXNCXkYR-23" value="NUMBER OF HEARTS" style="ellipse;whiteSpace=wrap;html=1;" vertex="1" parent="1">
          <mxGeometry x="620" y="860" width="80" height="80" as="geometry" />
        </mxCell>
        <mxCell id="CDvU7p-iJY4ADXNCXkYR-25" value="REGENE-&lt;br&gt;RATION" style="ellipse;whiteSpace=wrap;html=1;" vertex="1" parent="1">
          <mxGeometry x="750" y="860" width="80" height="80" as="geometry" />
        </mxCell>
      </root>
    </mxGraphModel>
  </diagram>
</mxfile>
